<?xml version="1.0" encoding="UTF-8" standalone="no"?>
<svg
   xmlns:dc="http://purl.org/dc/elements/1.1/"
   xmlns:cc="http://creativecommons.org/ns#"
   xmlns:rdf="http://www.w3.org/1999/02/22-rdf-syntax-ns#"
   xmlns:svg="http://www.w3.org/2000/svg"
   xmlns="http://www.w3.org/2000/svg"
   xmlns:xlink="http://www.w3.org/1999/xlink"
   xmlns:sodipodi="http://sodipodi.sourceforge.net/DTD/sodipodi-0.dtd"
   xmlns:inkscape="http://www.inkscape.org/namespaces/inkscape"
   version="1.1"
   x="0"
   y="0"
   width="210mm"
   height="297mm"
   viewBox="0 0 793.70078 1122.5196"
   id="svg27"
   sodipodi:docname="Einhorn_zum_Ausmalen.svg"
   inkscape:version="1.0.1 (3bc2e813f5, 2020-09-07)">
  <metadata
     id="metadata33">
    <rdf:RDF>
      <cc:Work
         rdf:about="">
        <dc:format>image/svg+xml</dc:format>
        <dc:type
           rdf:resource="http://purl.org/dc/dcmitype/StillImage" />
        <dc:title></dc:title>
      </cc:Work>
    </rdf:RDF>
  </metadata>
  <defs
     id="defs31" />
  <sodipodi:namedview
     pagecolor="#ffffff"
     bordercolor="#666666"
     borderopacity="1"
     objecttolerance="10"
     gridtolerance="10"
     guidetolerance="10"
     inkscape:pageopacity="0"
     inkscape:pageshadow="2"
     inkscape:window-width="1366"
     inkscape:window-height="740"
     id="namedview29"
     showgrid="false"
     units="mm"
     inkscape:document-units="mm"
     inkscape:zoom="0.47393378"
     inkscape:cx="800.91528"
     inkscape:cy="536.33312"
     inkscape:window-x="0"
     inkscape:window-y="0"
     inkscape:window-maximized="1"
     inkscape:current-layer="svg27" />
  <g
     id="g1065">
    <path
       d="m 572.03478,507.35074 c -17.95433,-12.75154 -22.53422,-36.62118 -2.79857,-50.63197 6.6256,-4.70312 13.62987,-5.87498 21.51696,-6.30967 6.86535,-0.37643 7.02219,-2.7067 12.48714,-7.27763 11.53486,-9.64599 27.00207,-14.05111 41.89791,-13.07643 16.88554,1.10688 45.01017,13.55145 38.51005,34.85779 -0.98813,3.23774 2.16223,5.79432 5.16918,5.16918 24.07578,-5.01682 34.71887,27.22389 36.59429,45.34627 1.10912,10.73943 0.45261,21.68949 -1.93816,32.21382 -2.33476,10.28458 -7.2978,18.72959 -11.22566,28.30165 -2.49832,6.08336 1.13825,10.92989 1.87767,17.49275 0.91642,8.11564 -0.28233,16.39932 -2.98903,24.07578 -5.94444,16.85417 -19.26063,30.19948 -36.54948,34.99895 0.7439,2.69999 1.49003,5.39997 2.23393,8.10219 7.82211,-3.12346 15.58148,2.4804 15.98703,10.84475 0.35403,7.32692 -4.74793,13.23552 -9.86782,17.68769 -2.60363,2.26305 -0.85144,5.98701 1.85302,7.01995 4.4208,1.68945 8.11339,1.19875 12.38855,-0.68339 8.25008,-3.63434 21.04419,-15.33277 26.06324,0.33385 5.7876,18.07084 -19.65498,33.54253 -33.87862,36.89006 -35.48069,8.35314 -67.98804,-22.00094 -62.93089,-58.02835 0.46381,-3.30272 -2.75376,-6.94601 -6.17299,-4.74345 -13.83602,8.90882 -17.42554,-13.58506 -16.93932,-22.22501 0.41676,-7.43223 2.05468,-14.80397 4.60454,-21.78808 2.79409,-7.64958 22.38409,-45.15581 34.34468,-32.7807 1.69617,-2.19808 3.39458,-4.3984 5.09076,-6.59648 -27.04017,-13.99734 -36.3904,-50.44823 -19.44885,-75.74292 2.61708,-3.90546 -3.59848,-8.83937 -6.59871,-5.09076 -12.51179,15.63974 -34.33124,10.98815 -49.28085,1.64016 -4.59781,-2.87476 -8.82144,4.39167 -4.24155,7.25522 17.94312,11.21893 44.66287,15.55011 59.4646,-2.95318 -2.20031,-1.69841 -4.39839,-3.39458 -6.59871,-5.09075 -19.36818,28.91782 -8.42484,71.25042 22.46252,87.23746 4.17881,2.15998 8.49654,-3.07642 5.09299,-6.59872 -20.06054,-20.75962 -45.16029,25.9176 -49.54301,39.91046 -3.892,12.4244 -6.67041,29.1643 -0.66547,41.38256 4.94736,10.06724 16.61218,15.06165 26.49793,8.69596 -2.05692,-1.5819 -4.11384,-3.1638 -6.17075,-4.7457 -6.2671,44.66288 35.74956,82.03692 79.29659,66.55403 16.46878,-5.85258 37.5152,-22.61488 34.32452,-42.49393 -1.30406,-8.12459 -7.49946,-15.85035 -15.9131,-17.21939 -10.56914,-1.71858 -19.77821,12.30789 -29.01417,8.77886 0.61842,2.34148 1.23684,4.68296 1.85302,7.0222 8.82367,-7.66974 15.7921,-20.03589 10.57138,-31.7993 -4.21466,-9.49139 -15.15127,-14.65385 -24.86449,-10.77529 -4.89134,1.95161 -3.1145,9.5855 2.23393,8.10219 18.84162,-5.22967 33.57389,-19.17996 40.98596,-37.18358 3.52007,-8.54584 5.40445,-17.90503 4.93616,-27.17236 -0.24199,-4.79723 -2.90165,-10.46383 -2.76721,-15.01908 0.14565,-4.94511 4.70985,-10.77752 6.56735,-15.39102 9.24716,-22.95322 11.00607,-50.82914 2.02779,-74.18343 -6.69955,-17.42106 -21.8553,-33.87863 -41.98754,-29.68413 1.72082,1.72306 3.44388,3.44388 5.16694,5.16694 6.45307,-21.1495 -13.94133,-37.63396 -32.18694,-42.98911 -19.82975,-5.82121 -42.49616,-1.88439 -59.07025,10.49744 -3.98163,2.97783 -6.43514,6.40602 -11.30408,7.33141 -5.1154,0.9702 -9.82524,0.7551 -14.88463,2.64397 -8.77663,3.27583 -16.68164,9.54965 -21.52592,17.60926 -11.82391,19.67291 -2.20032,40.14125 15.01459,52.36623 4.41856,3.13691 8.61978,-4.14744 4.24155,-7.25522"
       fill="#656464"
       id="path835"
       style="fill:#000000;stroke-width:2.24065" />
    <path
       d="m 352.95749,604.54788 c -4.25724,54.92953 0.007,110.51333 12.59469,164.15001 0.90522,3.86288 1.48107,8.77438 -1.80372,10.99935 -1.32871,0.90074 -3.00023,1.09119 -4.59782,1.257 -14.35584,1.48107 -28.71393,2.9599 -43.06977,4.44097 -1.58638,-23.62093 -1.57742,-47.3158 -1.56845,-70.98827 0.0112,-33.57613 0.22854,-68.20538 13.33186,-99.11962 1.8351,-4.32894 4.06454,-8.73854 7.89605,-11.46541 3.82927,-2.72911 9.68633,-3.14811 12.92631,0.25992"
       fill="#fefefe"
       id="path837"
       style="stroke-width:2.24065" />
    <path
       d="m 348.75627,604.54788 c -2.64397,35.96019 -1.92472,72.06378 2.52745,107.85816 2.05244,16.49567 4.79947,32.90171 8.34642,49.14193 0.69012,3.1638 3.91218,12.42665 0.80215,15.0034 -2.19135,1.81492 -10.87835,1.19202 -14.20348,1.53484 -10.04931,1.03518 -20.09862,2.0726 -30.14794,3.10778 l 4.20122,4.20122 c -1.91127,-30.32271 -1.98746,-60.84933 -1.43626,-91.22133 0.26216,-14.41634 0.93884,-28.92007 3.31617,-43.1594 1.16513,-6.98187 10.02466,-53.63219 24.38499,-43.30504 4.39615,3.16156 8.59737,-4.12504 4.24155,-7.25522 -27.33593,-19.65722 -36.97969,47.56227 -38.51005,61.38932 -4.47906,40.48406 -2.95542,82.98022 -0.39884,123.55167 0.1322,2.08605 1.82613,4.44545 4.20122,4.20122 11.48557,-1.18306 22.97114,-2.36837 34.45447,-3.55367 4.84653,-0.49967 12.11744,-0.0202 16.18422,-3.37442 4.67847,-3.8584 3.7486,-9.82973 2.88371,-15.0863 -1.71409,-10.4235 -4.53059,-20.71256 -6.33207,-31.14279 -7.52411,-43.54478 -9.35023,-87.84243 -6.1125,-131.89137 0.3966,-5.39548 -8.00808,-5.36859 -8.40243,0"
       fill="#656464"
       id="path839"
       style="fill:#000000;stroke-width:2.24065" />
    <path
       d="m 484.18114,621.83002 c -12.42888,50.90532 -21.57522,102.61503 -27.36281,154.69446 -0.20166,1.82389 -0.3473,3.85168 0.77078,5.3081 1.11808,1.45866 3.11674,1.83733 4.93391,2.11741 l 41.40497,6.33208 c 1.63791,0.25095 3.34305,0.49742 4.93391,0.0224 5.20055,-1.56397 5.34395,-8.76766 4.62918,-14.1497 -6.4329,-48.52127 4.83084,-97.66096 3.15708,-146.57883 -0.21062,-6.19988 -0.69909,-12.63278 -3.72844,-18.04843 -3.02936,-5.41341 -9.30766,-9.49812 -15.34397,-8.06634 -3.01592,0.71477 -5.59267,2.67758 -7.76161,4.89358 -4.91375,5.01457 -8.20078,11.60208 -9.25613,18.54586"
       fill="#fefefe"
       id="path841"
       style="stroke-width:2.24065" />
    <path
       d="m 507.49924,752.74198 c -12.74252,-4.31998 -26.29247,-5.82468 -39.77594,-4.06531 -6.98399,0.91213 -5.95593,9.3328 1.11987,8.40825 11.59307,-1.51152 22.95604,-0.58321 33.98003,3.15363 6.67809,2.264 11.38807,-5.22228 4.67604,-7.49657"
       fill="#656464"
       id="path987"
       style="fill:#000000;stroke-width:2.59322" />
    <path
       d="m 480.13005,620.71193 c -9.0836,37.49728 -16.51583,75.36874 -22.07937,113.55165 -1.20771,8.29265 -2.33699,16.59874 -3.38114,24.91379 -0.82232,6.56958 -3.87184,16.11475 -1.57293,22.51405 1.46986,4.08918 4.29308,5.22295 8.30833,6.30743 9.25388,2.50056 19.49813,2.9823 28.9828,4.43424 8.43829,1.29062 21.58194,6.06544 26.19544,-4.17881 2.59467,-5.76071 0.97916,-12.54092 0.36971,-18.52569 -1.01726,-9.98882 -1.33767,-20.03141 -1.23908,-30.06728 0.37194,-37.86026 7.77057,-75.95355 4.95855,-113.82277 -0.86489,-11.63346 -5.8817,-25.75627 -19.51606,-26.78025 -13.81808,-1.03742 -22.31015,15.42464 -24.64938,26.72423 -1.0912,5.27673 7.00651,7.53307 8.10219,2.23393 0.88057,-4.25723 2.15102,-8.33746 4.48354,-12.04797 4.38495,-6.96618 15.15575,-10.51089 20.19945,-2.32132 4.48354,7.27987 3.32737,18.44951 3.32065,26.72423 -0.0157,16.59426 -1.27045,33.15042 -2.5409,49.68641 -1.26821,16.51135 -2.59691,33.0339 -2.76048,49.60351 -0.0762,7.8826 0.0851,15.77193 0.66995,23.63437 0.37195,5.02578 4.97201,20.19722 -1.56845,23.06749 -2.69774,1.18531 -11.01952,-1.60879 -13.7912,-2.03227 -3.4506,-0.52879 -6.89896,-1.05534 -10.34956,-1.58414 -5.64868,-0.86265 -18.44951,-0.3585 -21.25257,-6.22228 -1.21443,-2.53866 1.13377,-9.87006 1.51692,-13.01146 0.661,-5.40668 1.35336,-10.81113 2.08829,-16.20662 1.18082,-8.65338 2.45799,-17.29557 3.82479,-25.91983 5.24088,-33.07423 11.89785,-65.89751 19.7827,-98.44071 1.27269,-5.25432 -6.82726,-7.49497 -8.10219,-2.23393"
       fill="#656464"
       id="path843"
       style="fill:#000000;stroke-width:2.24065" />
    <path
       d="m 360.52411,743.8477 c -13.40623,-1.1433 -26.92232,0.64012 -39.59233,5.57674 -6.56244,2.55781 -3.54807,10.48739 3.10054,7.89553 10.89394,-4.24335 22.14865,-6.06275 33.74671,-5.07414 7.02592,0.59917 9.80642,-7.79709 2.74508,-8.39813"
       fill="#656464"
       id="path989"
       style="fill:#000000;stroke-width:2.59322" />
    <path
       d="m 338.75625,626.90733 c -3.42147,15.64422 -1.39145,30.36528 -3.04505,46.2963 -2.97334,28.61534 -4.22362,57.48388 -3.44387,86.24934 0.52431,19.30768 6.48444,51.37138 -1.16514,68.95599 -0.53776,1.23684 -2.13534,1.50348 -3.47749,1.59983 -19.26511,1.36231 -35.13339,0.84248 -54.03999,-4.69864 13.51112,-80.56929 17.09391,-162.59724 5.00337,-243.39059 -4.58213,-30.61176 -12.48266,-60.72609 -23.52234,-89.64616 -7.06925,-18.51897 -26.7444,-70.7149 -50.06732,-54.15202 C 167.77898,464.55208 111.72913,459.84 79.448087,427.56344 49.163464,397.28554 64.653076,348.74858 101.66861,331.695 c 5.13781,-2.36613 10.63637,-3.84944 15.85484,-6.03632 20.45041,-8.57272 34.72559,-28.16272 46.4061,-46.19547 14.96978,-23.10334 12.31685,-44.30885 8.2792,-69.82985 0.63186,3.98835 15.51874,10.62068 18.56826,14.55302 4.36031,5.61955 6.8071,14.4746 9.17322,21.1226 12.50955,-4.77706 26.68166,-4.46337 39.20465,0.0964 5.96909,2.17343 9.50932,6.17971 15.82123,4.553 5.44478,-1.40265 10.05604,-7.56667 13.81361,-11.36233 2.6955,-2.72239 5.59714,-5.24088 8.67355,-7.52635 2.80754,-2.08604 6.42395,-4.05333 9.63928,-2.67309 1.9516,0.84024 3.22205,2.73583 4.22586,4.61126 5.78312,10.80441 6.26262,23.83603 3.69708,35.81902 -3.08538,14.4141 -13.18175,27.02 -13.77552,41.55509 -0.66995,16.36123 1.03966,33.62095 7.14767,48.91115 11.2996,28.27476 33.06975,52.04133 58.29947,68.65575 30.8784,20.33166 66.52937,31.36013 102.10193,40.22863 32.51855,8.10891 70.37657,-11.8396 100.15705,8.76094 49.20467,34.04667 40.05609,96.63698 29.50711,147.32944 -15.12662,72.6822 -38.53469,140.13024 -18.5705,215.05085 -13.88755,2.06588 -50.21745,10.0157 -62.65305,0.32713 -1.70065,-1.32422 -1.73202,-3.83823 -1.60879,-5.98925 0.98141,-17.15218 4.77035,-34.21024 5.04595,-51.20109 0.84024,-52.07943 7.39862,-103.35446 0.92762,-155.75205 -24.49254,19.63257 -36.48674,29.76703 -69.17334,29.1038 -18.11565,-0.36747 -36.29628,-2.42214 -53.39916,-8.11339 -14.68298,-4.88686 -25.95121,-15.73385 -40.27568,-20.78651"
       fill="#fefefe"
       id="path845"
       style="stroke:#000000;stroke-width:2.24065" />
    <path
       d="m 334.70515,625.79148 c -4.11159,21.69174 -3.26014,44.74354 -4.93391,66.76241 -1.74995,23.05404 -2.65517,46.37697 -1.60654,69.48927 0.75734,16.68836 3.66346,33.39464 2.28322,50.1323 -0.20838,2.52073 -0.34954,10.76184 -2.47368,12.74481 -3.23102,3.01368 -13.73742,1.54829 -18.08204,1.50348 -12.0054,-0.12772 -23.63438,-1.95833 -35.19165,-5.1647 0.97917,1.72306 1.95609,3.44612 2.93525,5.16694 11.46093,-69.27417 16.06994,-139.78742 9.39281,-209.81221 -5.14902,-53.99293 -16.27608,-111.14743 -42.78297,-159.18472 -6.37465,-11.55503 -17.5667,-29.25841 -33.31398,-26.39486 -10.18824,1.85302 -19.0993,10.84027 -28.96264,14.38722 -12.30789,4.42528 -25.45602,6.16178 -38.49885,5.4515 -25.89743,-1.41385 -56.074498,-13.71278 -69.475825,-37.23064 -12.872533,-22.59023 -4.886857,-50.92101 13.68813,-67.73484 12.065899,-10.92317 27.797505,-13.03162 41.201065,-21.45422 11.57744,-7.27764 20.77755,-17.63616 28.84837,-28.53692 9.56533,-12.92407 18.20304,-26.40382 20.79323,-42.54546 2.39974,-14.96082 0.0493,-30.04263 -2.2653,-44.85333 -2.55882,1.08 -5.11988,2.15775 -7.6787,3.23774 2.10845,4.78827 8.04841,7.55771 12.16896,10.24201 9.24493,6.01615 11.65138,14.29087 15.14904,24.42757 0.7058,2.04795 2.90612,3.70603 5.16694,2.93525 7.78401,-2.65517 15.71367,-3.9077 23.93238,-3.00247 7.80194,0.86041 13.67244,4.31549 20.82236,6.80261 11.77909,4.09367 18.27698,-3.94578 25.94,-11.59088 3.21309,-3.20637 10.43919,-11.16292 15.93998,-6.44187 2.74928,2.36389 4.09367,12.12864 4.40512,15.34845 0.79543,8.23439 -0.52207,16.52031 -3.18172,24.30881 -4.90703,14.36257 -11.91578,25.68233 -11.99868,41.29518 -0.31594,60.4124 43.00927,106.33676 95.17384,130.81361 25.64647,12.03229 55.30596,23.1011 83.49781,26.78697 30.03143,3.92338 64.01313,-11.47885 91.23926,6.88552 46.89904,31.63573 37.4435,95.15367 27.57568,142.58599 -15.00787,72.13772 -37.46143,143.52482 -18.57051,217.28477 0.97693,-1.72306 1.95609,-3.44612 2.93301,-5.16918 -15.11542,2.34148 -30.51989,5.85482 -45.90867,4.71209 -2.4804,-0.18373 -9.91488,-0.52655 -11.96731,-2.91957 -3.27135,-3.81134 -0.17925,-13.91219 0.3585,-18.38677 1.53485,-12.81203 3.33409,-25.46946 3.66123,-38.38681 1.30181,-51.19437 6.85414,-102.48508 0.88729,-153.58086 -0.43916,-3.76653 -4.20346,-5.35067 -7.17232,-2.9711 -9.67288,7.75713 -19.37266,16.14164 -30.66329,21.50576 -12.47146,5.92651 -26.11701,6.71746 -39.72,6.25141 -17.85798,-0.61394 -37.18582,-2.59692 -53.6546,-10.06052 -12.02557,-5.44926 -22.3348,-13.76431 -34.72335,-18.57499 -5.0437,-1.95832 -7.22834,6.16403 -2.23169,8.10219 15.50754,6.02287 28.15825,17.15218 44.23939,22.03679 17.33815,5.26553 36.15961,7.20817 54.23493,7.04237 28.16497,-0.25768 47.2217,-13.33187 68.46082,-30.36305 -2.39078,-0.99037 -4.78155,-1.98073 -7.17232,-2.96886 3.53126,30.23309 3.11226,60.57373 1.74546,90.93005 -1.35335,30.01574 -1.16065,60.55132 -4.93167,90.36093 -1.09119,8.63546 -6.08784,23.83603 -1.80596,32.10851 2.84786,5.49631 10.62292,7.07821 16.1282,7.84675 17.40536,2.42663 35.32832,-1.92696 52.46929,-4.58213 2.27426,-0.35178 3.44612,-3.17276 2.93525,-5.16693 -18.4876,-72.18254 3.87633,-142.25662 18.57051,-212.81692 9.27181,-44.5262 18.14926,-99.18013 -14.2707,-136.82528 -19.35697,-22.4782 -43.5067,-27.10962 -71.91366,-24.57545 -16.25143,1.4497 -32.24295,3.55815 -48.31961,-0.3361 -15.93326,-3.86064 -31.77465,-8.44949 -47.20825,-13.98613 -32.16229,-11.53711 -62.92865,-28.49883 -85.50768,-54.64049 -21.07331,-24.39619 -38.61311,-63.31852 -27.43451,-95.83707 5.47166,-15.91534 13.67468,-29.38164 12.74257,-46.86992 -0.49966,-9.39728 -3.7979,-29.45334 -16.80487,-28.5033 -5.79208,0.42348 -11.18308,5.48287 -15.21401,9.16202 -2.77841,2.53417 -5.07059,5.6778 -7.92294,8.10219 -6.40378,5.44477 -9.60567,4.74121 -16.57857,1.90679 -14.78605,-6.01166 -30.05383,-6.91017 -45.24768,-1.7253 l 5.16694,2.93525 c -2.68206,-7.77281 -4.96304,-17.41433 -10.80666,-23.54475 -4.54627,-4.77258 -14.6897,-7.07597 -17.35831,-13.13469 -2.07484,-4.71433 -8.34866,-1.04638 -7.67871,3.23774 2.42663,15.52098 4.89806,31.66038 0.87386,47.14775 -3.92562,15.10422 -14.47012,29.49144 -24.47462,41.26157 -10.65205,12.5342 -22.39081,20.25099 -37.7079,25.96689 -10.168066,3.79566 -19.426431,9.12169 -27.181319,16.80711 -14.474598,14.34689 -22.75604,35.19837 -19.856639,55.59949 2.939733,20.68792 17.17234,36.41056 34.557542,46.95506 20.051576,12.16224 44.474656,16.94827 67.685546,14.1497 10.49745,-1.26597 20.67896,-4.0511 30.30255,-8.44053 9.36592,-4.27292 18.80129,-15.24986 29.18446,-8.3509 15.24763,10.12998 22.72467,33.88535 28.90439,50.05388 11.25478,29.4511 19.37041,59.96203 24.09146,91.13619 12.10175,79.91725 8.14925,161.64944 -5.00337,241.15665 -0.37195,2.24289 0.56017,4.50819 2.93301,5.16694 11.03744,3.06297 22.1802,4.98097 33.63888,5.38204 7.0334,0.24423 20.46161,2.26754 26.52929,-2.13534 5.12661,-3.71724 5.512,-13.20191 6.06992,-18.93573 0.99037,-10.16359 0.28681,-20.43472 -0.51759,-30.58711 -1.82389,-23.0294 -2.32579,-45.8661 -1.30854,-68.96944 0.60274,-13.68141 1.86198,-27.27543 3.03384,-40.91203 1.2951,-15.07061 0.065,-30.25101 2.89492,-45.17822 1.00157,-5.28569 -7.09389,-7.54875 -8.10219,-2.23393"
       fill="#656464"
       id="path847"
       style="fill:#000000;stroke-width:2.24065" />
    <path
       d="m 277.76352,291.57392 c -5.59714,6.29623 -13.60971,8.77663 -10.44367,21.6514 2.12638,8.64667 8.33522,15.61061 14.3312,22.19364 -13.71054,7.48377 -23.41927,21.87322 -25.22748,37.38972 -1.8082,15.5165 4.33118,31.75225 15.95343,42.18919 2.4804,2.22721 5.44702,4.75466 5.24312,8.07979 -0.2039,3.34977 -3.49093,5.49407 -6.19316,7.48153 -11.87096,8.73853 -17.77059,24.85777 -14.3424,39.19344 3.42596,14.33568 15.97808,26.04756 30.51765,28.47194 -16.87657,19.88353 -14.38721,53.21991 5.25209,70.37881 3.00471,2.62604 6.45531,4.94735 10.38317,5.65316 7.76833,1.39816 15.47168,-4.04661 19.24942,-10.97918 3.77549,-6.93258 4.49922,-15.06165 5.14677,-22.92857 13.26689,12.12639 36.7489,4.60901 45.65324,-11.00384 8.90434,-15.61508 6.42843,-35.35969 0.0784,-52.17353 19.30768,-9.81628 32.51407,-30.6476 33.15042,-52.299 0.63634,-21.6514 -11.32201,-43.22214 -30.02023,-54.15427 8.66459,-18.12461 14.74348,-38.44731 11.15844,-58.21432 -3.58728,-19.76477 -19.05449,-38.38009 -39.05005,-40.31825 8.68924,-18.09101 13.34755,-39.81187 4.96304,-58.04852 -5.00561,-10.88731 -20.81787,-25.27005 -32.50062,-28.84612 -14.9541,-4.57989 -25.28574,6.99755 -39.09038,10.31595 -11.23238,2.70222 -13.84273,-5.51648 -26.24697,-5.63748 -8.93795,-0.0874 -17.67425,5.53665 -21.29738,13.7083 -3.7374,-4.09815 -8.8416,-6.8183 -14.2214,-8.17165 -7.43448,-1.86646 -15.97135,-0.959 -21.70742,4.1228 -5.7383,5.08179 -7.37846,14.86223 -2.23617,20.54451 -6.05647,2.73136 -9.9328,8.71165 -12.94871,14.62921 -4.06006,7.96551 -7.25298,16.93931 -5.59266,25.7249 1.6648,8.79007 8.4831,16.40379 17.03566,19.02311 8.5548,2.61932 18.46743,0.12548 24.7659,-6.22676 0.40556,6.229 5.5725,11.81718 11.77686,12.7112 18.34644,2.60364 27.05136,-26.61443 36.04981,-37.87594 8.63771,-10.8089 20.17033,-21.07779 18.42486,1.09344 -0.77526,9.86558 -0.8268,28.50778 -4.80395,37.43453 -0.85369,1.918 -1.97401,3.49542 -3.21085,4.88686"
       fill="#f7c7c8"
       id="path849"
       style="fill:#ffffff;stroke-width:2.24065" />
    <path
       d="m 274.79242,288.60282 c -5.97357,6.18867 -12.47818,10.45487 -12.32358,19.95074 0.19494,11.87993 8.69821,21.52593 16.21111,29.83426 0.28456,-2.19808 0.56688,-4.3984 0.85144,-6.59648 -14.85327,8.8192 -25.44258,23.60301 -27.30904,41.01734 -0.99261,9.26509 0.62738,18.69598 4.37375,27.20373 3.21757,7.30228 17.2418,19.63705 12.28548,27.24854 -1.81268,2.78065 -5.70917,4.9496 -7.85796,7.72128 -2.49608,3.21981 -4.44544,6.72195 -5.95564,10.49968 -3.02264,7.55099 -3.92786,15.84364 -2.33252,23.84052 3.36322,16.86089 17.25076,29.42421 33.74867,32.95099 l -1.85302,-7.01995 c -16.11251,20.36078 -16.84969,50.623 0.0829,70.93449 7.6563,9.18218 18.44951,15.97583 30.29134,10.14342 13.5044,-6.64801 15.68007,-22.62832 16.82952,-35.98259 -2.39077,0.99036 -4.78155,1.98073 -7.17232,2.9711 14.02199,11.29511 33.91448,8.24111 46.38369,-4.26172 16.5584,-16.60097 13.56938,-42.87707 6.36793,-63.00483 -0.64307,1.5819 -1.28613,3.1638 -1.9292,4.7457 44.57997,-24.30433 46.04983,-86.92601 3.13019,-113.71074 0.5019,1.91576 1.00381,3.83375 1.50795,5.74951 9.84766,-21.20775 17.46363,-46.03639 9.54293,-69.15094 -6.16627,-17.99017 -20.68344,-32.81879 -39.9463,-35.55239 0.838,2.05692 1.67376,4.11384 2.51177,6.17075 8.46965,-18.40694 14.02422,-39.9463 6.0968,-59.55647 -5.76071,-14.25053 -20.35182,-28.13584 -34.95189,-33.08319 -20.01573,-6.78021 -35.22302,15.28347 -54.16547,7.49049 -14.96082,-6.15507 -30.47508,-2.57899 -38.40698,12.39975 2.20032,-0.28232 4.3984,-0.56688 6.59871,-0.8492 -9.5362,-9.12169 -24.59561,-13.83153 -36.95503,-7.35157 -10.65877,5.58818 -14.88912,18.83266 -7.80867,28.94023 0.50191,-1.91576 1.00381,-3.83375 1.50572,-5.74951 -16.20662,9.20683 -26.86763,36.02293 -17.50172,53.05187 9.59895,17.44794 31.54163,19.17772 45.8549,6.6973 l -7.02219,-1.85302 c 2.10845,11.01504 12.24963,18.3218 23.39014,15.22522 9.84317,-2.7336 16.0677,-12.42441 20.94559,-20.66328 3.03832,-5.13332 5.57474,-10.61843 8.92003,-15.56355 1.58638,-2.34372 8.7475,-13.08763 11.75669,-12.50282 5.82345,1.13152 -2.75824,43.89208 -5.69573,47.66534 -3.28255,4.2169 2.62156,10.20616 5.9422,5.9422 8.98277,-11.53934 8.19854,-27.58016 8.99845,-41.52596 0.40332,-6.99979 1.90903,-22.90392 -9.74234,-20.88958 -8.99845,1.55277 -16.56289,13.63884 -20.78651,20.80667 -3.5828,6.07889 -6.62785,12.49163 -10.71031,18.26802 -2.15326,3.04729 -4.54852,6.08337 -7.6675,8.19406 -6.76901,4.58213 -15.64646,1.17858 -17.24852,-7.19025 -0.63635,-3.3296 -4.83757,-3.75757 -7.0222,-1.85525 -11.96059,10.43022 -31.61781,5.88394 -34.54634,-10.83131 -2.15102,-12.27652 5.44926,-29.51159 16.37691,-35.72043 1.85526,-1.05311 2.80081,-3.89874 1.50796,-5.74727 -6.06768,-8.66011 1.63567,-18.07756 11.05088,-18.97606 7.84004,-0.74838 14.89584,2.19583 20.51539,7.57115 1.87991,1.797 5.30138,1.59758 6.59871,-0.85145 5.06387,-9.56309 14.57991,-13.76207 24.93844,-10.13445 4.48354,1.56845 8.28368,4.17657 13.12572,4.60901 13.10556,1.16514 23.28708,-10.36973 35.83696,-11.55951 14.41858,-1.36456 30.29134,13.39236 36.83852,25.32382 9.5967,17.48828 3.98388,39.06573 -3.82255,56.02745 -0.98813,2.14879 -0.42796,5.75623 2.51177,6.17299 17.52188,2.48712 30.36977,15.96015 35.0236,32.73814 5.59042,20.16136 -1.1517,41.33326 -9.64376,59.62145 -0.97916,2.10621 -0.56912,4.45217 1.50572,5.74726 37.76391,23.56716 35.78093,77.98582 -3.13019,99.20029 -1.52364,0.83128 -2.53642,3.04953 -1.93144,4.74346 5.50976,15.39774 9.10376,33.9548 0.3473,48.93579 -7.50842,12.8434 -26.48,20.2846 -39.05453,10.15462 -2.9106,-2.34372 -6.84742,-0.82231 -7.17232,2.97111 -0.85817,9.97761 -2.34372,26.76904 -14.75916,29.50263 -11.27047,2.48488 -20.27788,-11.14499 -23.99063,-19.70203 -6.9617,-16.04081 -5.0325,-35.15356 5.88842,-48.95596 1.80149,-2.2765 1.55053,-6.29398 -1.85301,-7.0222 -19.19565,-4.10487 -32.58577,-22.31015 -27.11411,-41.99425 2.35717,-8.48535 7.53083,-14.02423 14.02199,-19.52727 3.02488,-2.5633 6.05648,-5.27225 6.1954,-9.57205 0.17253,-5.35516 -4.29757,-8.82368 -7.67647,-12.21154 -6.25589,-6.27158 -10.65877,-13.93237 -12.67984,-22.57231 -4.61798,-19.74237 5.27673,-39.13519 22.30791,-49.24724 2.41542,-1.43626 2.65965,-4.59782 0.84921,-6.59872 -5.80328,-6.41722 -13.49544,-14.2214 -13.43718,-23.47528 0.0448,-7.12751 4.98993,-9.7065 9.54965,-14.42755 3.75533,-3.89201 -2.17791,-9.84093 -5.9422,-5.9422"
       fill="#656464"
       id="path851"
       style="fill:#000000;stroke-width:2.24065" />
    <path
       d="m 216.38316,228.94776 c 10.54002,3.26014 22.38857,2.03003 32.03457,-3.32513 1.12256,-0.6229 2.2765,-1.36679 2.81201,-2.53193 0.56465,-1.23684 0.31594,-2.67758 0.0515,-4.01076 -5.36636,-27.02896 -12.44233,-53.71958 -21.1719,-79.85676 -2.91733,-8.73181 -6.17747,-17.66977 -12.4737,-24.38723 -5.10868,9.48915 -5.02802,20.81787 -4.76138,31.59092 0.64083,26.13045 1.61775,52.24971 2.92405,78.35552 0.1927,3.82927 0.38763,6.23349 4.11607,5.34619"
       fill="#fefefe"
       id="path853"
       style="stroke-width:2.24065" />
    <path
       d="m 215.26732,232.99885 c 11.16963,2.89268 27.47036,3.33185 36.89678,-4.81067 7.58011,-6.54942 1.07551,-20.57141 -0.71477,-28.41592 -3.83375,-16.79143 -8.32178,-33.43274 -13.47079,-49.8679 -4.22362,-13.47527 -8.07978,-27.09842 -17.37176,-38.03952 -1.65808,-1.94936 -5.49855,-1.48779 -6.59647,0.85145 -9.9216,21.09796 -5.02802,48.1919 -4.20346,70.72163 0.50191,13.70381 0.40556,27.69891 1.79252,41.34447 0.57585,5.67781 1.87991,9.77371 8.31729,9.54741 5.39101,-0.18822 5.41565,-8.59289 0,-8.40244 -0.0336,0.002 -1.94488,-49.04782 -2.08828,-53.37452 -0.57809,-17.51516 -4.25276,-39.2405 3.43715,-55.59724 -2.20031,0.28456 -4.40287,0.56688 -6.59871,0.85145 13.96597,16.44413 18.42262,43.7218 23.76209,64.12515 2.79185,10.6655 5.31482,21.39821 7.5622,32.18918 1.5438,7.41207 0.67219,8.64218 -7.17232,10.91196 -7.12303,2.05916 -14.20348,1.70514 -21.31755,-0.13668 -5.23864,-1.35559 -7.47256,6.7466 -2.23392,8.10219"
       fill="#656464"
       id="path855"
       style="fill:#000000;stroke-width:2.24065" />
    <path
       d="m 185.09024,448.4799 c 9.14858,-15.70471 14.23037,-32.7695 15.3014,-50.90084 0.31817,-5.4022 -8.08426,-5.38428 -8.40244,0 -0.98588,16.69508 -5.74054,32.21831 -14.15418,46.65929 -2.72687,4.68296 4.53283,8.91779 7.25522,4.24155"
       fill="#656464"
       id="path857"
       style="fill:#000000;stroke-width:2.24065" />
    <path
       d="m 188.98225,401.03863 c 4.3267,-0.72598 8.92227,0.49294 12.32358,3.26462 4.15864,3.38786 10.1367,-2.52297 5.9422,-5.9422 -5.94893,-4.84429 -12.93079,-6.69282 -20.49971,-5.42461 -5.32154,0.89177 -3.06296,8.98948 2.23393,8.10219"
       fill="#656464"
       id="path859"
       style="fill:#000000;stroke-width:2.24065" />
    <path
       d="m 197.97174,332.73018 c 19.56983,3.42595 38.5459,-4.5418 49.664,-21.04195 3.02936,-4.49698 -4.24603,-8.70716 -7.25522,-4.24155 -8.86849,13.16158 -24.50823,19.92386 -40.17485,17.18131 -5.28794,-0.92315 -7.55996,7.17232 -2.23393,8.10219"
       fill="#656464"
       id="path861"
       style="fill:#000000;stroke-width:2.24065" />
    <path
       d="m 219.2131,219.05529 c 10.28234,-0.419 19.93282,-3.67019 28.18289,-9.86334 4.27292,-3.20861 0.0896,-10.50641 -4.23931,-7.25523 -7.09389,5.32379 -15.0482,8.35315 -23.94358,8.71613 -5.38876,0.21959 -5.41565,8.62426 0,8.40244"
       fill="#656464"
       id="path863"
       style="fill:#000000;stroke-width:2.24065" />
    <path
       d="m 216.96349,191.24434 c 10.05379,0.74838 19.22477,-3.94578 25.12888,-11.96507 3.20862,-4.35806 -4.08022,-8.55256 -7.25522,-4.23931 -4.19226,5.6935 -10.94781,8.3173 -17.87366,7.80195 -5.39325,-0.40108 -5.3686,8.0036 0,8.40243"
       fill="#656464"
       id="path865"
       style="fill:#000000;stroke-width:2.24065" />
    <path
       d="m 215.90142,167.58308 c 7.2485,-1.03742 14.0668,-3.80014 20.01124,-8.07082 4.35358,-3.12795 0.16357,-10.41902 -4.24155,-7.25522 -5.4627,3.92338 -11.34665,6.27158 -18.00362,7.22385 -5.3305,0.76182 -3.06297,8.85953 2.23393,8.10219"
       fill="#656464"
       id="path867"
       style="fill:#000000;stroke-width:2.24065" />
    <path
       d="m 213.55322,145.07575 c 5.91307,0.83129 11.77461,-0.24423 16.58529,-3.94802 1.79476,-1.38024 2.756,-3.61193 1.50796,-5.74727 -1.03294,-1.76563 -3.93907,-2.8994 -5.74727,-1.50795 -2.89492,2.22944 -6.39482,3.62313 -10.11205,3.10106 -2.24514,-0.31594 -4.51267,0.54895 -5.16918,2.93525 -0.54,1.96505 0.67443,4.84876 2.93525,5.16693"
       fill="#656464"
       id="path869"
       style="fill:#000000;stroke-width:2.24065" />
    <path
       d="m 272.01177,277.35924 c -0.24647,-7.84004 2.64621,-14.85551 8.35314,-20.23755 2.62829,-2.47816 -1.3399,-6.43515 -3.96147,-3.96147 -6.70626,6.32535 -10.28234,14.98323 -9.99329,24.19902 0.11427,3.59624 5.71589,3.61193 5.60162,0"
       fill="#656464"
       id="path871"
       style="fill:#000000;stroke-width:2.24065" />
    <path
       d="m 102.02711,381.77128 c 3.52455,-0.54 6.6749,3.56487 5.84362,6.81157 -0.89626,3.49318 4.50371,4.98321 5.39997,1.49004 1.98073,-7.72352 -5.06835,-14.87792 -12.73362,-13.70382 -1.505714,0.23079 -2.307867,2.10621 -1.956085,3.44612 0.423483,1.60207 1.958325,2.18463 3.446115,1.95609"
       fill="#656464"
       id="path873"
       style="fill:#000000;stroke-width:2.24065" />
    <path
       d="m 531.72325,522.28915 c -0.34058,-0.56913 16.10355,-10.52209 17.15665,-11.75893 3.02712,-3.55815 4.54852,-8.67356 2.8882,-13.03834 -0.64306,-1.69169 -1.7365,-3.20637 -3.13467,-4.35359 -0.81559,-0.66547 -1.7477,-1.21443 -2.77616,-1.44297 -2.64845,-0.58481 -5.31482,1.07327 -7.08494,3.13018 -0.85368,0.99261 -4.12503,5.35516 -3.41475,6.86087 -1.20995,-2.57002 -2.8501,-4.93615 -4.83308,-6.97066 -1.11584,-1.14497 -2.37061,-2.2048 -3.86512,-2.76944 -3.03608,-1.14721 -6.67041,0.0605 -8.79231,2.51625 -2.11965,2.45799 -2.82322,5.93772 -2.31907,9.14409 0.53327,3.40131 2.36612,6.58303 5.0437,8.75198 3.6545,2.96214 8.687,5.85258 11.13155,9.93056"
       fill="#abccc5"
       id="path875"
       style="fill:#ffffff;stroke:#000000;stroke-width:2.24065;stroke-linecap:round" />
    <path
       d="m 558.87096,548.90135 c -0.25991,-0.43245 12.23843,-7.98792 13.03834,-8.92675 2.30339,-2.70223 3.45957,-6.58751 2.19808,-9.90592 -0.48622,-1.28389 -1.31526,-2.43782 -2.37957,-3.30719 -0.61842,-0.50863 -1.32646,-0.92539 -2.10845,-1.09792 -2.0121,-0.44589 -4.03765,0.81335 -5.38204,2.37509 -0.64979,0.75285 -3.13691,4.06678 -2.59916,5.21175 -0.91642,-1.95385 -2.16222,-3.75309 -3.66794,-5.29914 -0.84696,-0.86937 -1.79924,-1.67376 -2.93525,-2.10397 -2.30787,-0.87385 -5.06835,0.0426 -6.68162,1.90903 -1.61103,1.86422 -2.14654,4.51043 -1.76563,6.94602 0.40556,2.58347 1.797,5.00113 3.82927,6.65025 2.77617,2.25185 6.59871,4.44993 8.45397,7.54875"
       fill="#abccc5"
       id="path877"
       style="fill:#ffffff;stroke:#000000;stroke-width:2.24065;stroke-linecap:round" />
    <path
       d="m 506.1059,550.55719 c -0.26888,-0.42573 12.04125,-8.28369 12.81652,-9.24268 2.23617,-2.75824 3.29823,-6.67042 1.95608,-9.95745 -0.51759,-1.27045 -1.37576,-2.40198 -2.45799,-3.2467 -0.63186,-0.49295 -1.35111,-0.89178 -2.13534,-1.04639 -2.0233,-0.39659 -4.01748,0.90971 -5.32378,2.50505 -0.63187,0.77078 -3.03608,4.14296 -2.4692,5.27449 -0.96572,-1.93144 -2.25633,-3.69931 -3.7979,-5.20727 -0.86713,-0.84921 -1.83957,-1.63119 -2.98679,-2.03227 -2.32579,-0.81784 -5.06386,0.16581 -6.63008,2.07036 -1.56621,1.90455 -2.03675,4.56196 -1.59758,6.98859 0.46829,2.57226 1.91799,4.95631 3.9906,6.5539 2.82994,2.18463 6.70626,4.28636 8.63546,7.34037"
       fill="#abccc5"
       id="path879"
       style="fill:#ffffff;stroke:#000000;stroke-width:2.24065;stroke-linecap:round" />
    <text
       xml:space="preserve"
       style="font-style:normal;font-variant:normal;font-weight:normal;font-stretch:normal;font-size:96px;line-height:1.25;font-family:Oswald;-inkscape-font-specification:Oswald;letter-spacing:2.66px;word-spacing:0px;fill:#000000;fill-opacity:1;stroke:none"
       x="243.28671"
       y="1011.9474"
       id="text932"><tspan
         sodipodi:role="line"
         id="tspan930"
         x="243.28671"
         y="1011.9474"
         style="font-style:normal;font-variant:normal;font-weight:800;font-stretch:expanded;font-size:96px;font-family:Grundschrift;-inkscape-font-specification:'Grundschrift Ultra-Bold Expanded'">Einhorn</tspan></text>
    <path
       d="m 327.36259,787.2167 c -13.0283,-3.36116 -26.6526,-3.85483 -39.96805,-1.0984 -6.89691,1.42858 -5.24597,9.74957 1.74157,8.30179 11.4487,-2.3688 22.84924,-2.28741 34.12043,0.61992 6.82786,1.76151 10.96853,-6.05406 4.10605,-7.82331"
       fill="#656464"
       id="path983"
       style="fill:#000000;stroke-width:2.59322" />
    <path
       d="m 547.36259,799.2167 c -13.0283,-3.36116 -26.6526,-3.85483 -39.96805,-1.0984 -6.89691,1.42858 -5.24597,9.74957 1.74157,8.30179 11.4487,-2.3688 22.84924,-2.28741 34.12043,0.61992 6.82786,1.76151 10.96853,-6.05406 4.10605,-7.82331"
       fill="#656464"
       id="path985"
       style="fill:#000000;stroke-width:2.59322" />
    <path
       sodipodi:type="star"
       style="fill:#ffffff;stroke:#000000;stroke-width:5.66929;stroke-linecap:round;stroke-miterlimit:4;stroke-dasharray:none"
       id="path991"
       sodipodi:sides="5"
       sodipodi:cx="76.673721"
       sodipodi:cy="140.29522"
       sodipodi:r1="34.724373"
       sodipodi:r2="17.258013"
       sodipodi:arg1="0.11604198"
       sodipodi:arg2="0.74436051"
       inkscape:flatsided="false"
       inkscape:rounded="0"
       inkscape:randomized="0"
       inkscape:transform-center-x="-2.1120238"
       inkscape:transform-center-y="1.242397"
       d="m 111.16456,144.31567 -21.797203,7.67189 -5.859053,22.35279 -14.032101,-18.35963 -23.069318,1.3351 13.124889,-19.01876 -8.398569,-21.52765 22.143729,6.60539 17.878716,-14.63992 0.560688,23.10111 z" />
    <use
       x="0"
       y="0"
       xlink:href="#path991"
       inkscape:transform-center-x="-2.1120238"
       inkscape:transform-center-y="1.242397"
       id="use993"
       transform="translate(573.2344,62.112139)"
       width="100%"
       height="100%" />
    <use
       x="0"
       y="0"
       xlink:href="#path991"
       inkscape:transform-center-x="-2.1120238"
       inkscape:transform-center-y="1.242397"
       id="use995"
       transform="translate(354.59462,-33.03759)"
       width="100%"
       height="100%" />
    <use
       x="0"
       y="0"
       xlink:href="#path991"
       inkscape:transform-center-x="-2.1120238"
       inkscape:transform-center-y="1.242397"
       id="use997"
       transform="translate(414.39461,162.70462)"
       width="100%"
       height="100%" />
  </g>
</svg>
