<?xml version="1.0" ?><!-- Uploaded to: SVG Repo, www.svgrepo.com, Generator: SVG Repo Mixer Tools -->
<svg width="800px" height="800px" viewBox="0 0 64 64" id="Flat" xmlns="http://www.w3.org/2000/svg"><path d="M32,47a1,1,0,0,1-1-1V25a1,1,0,0,1,2,0V46A1,1,0,0,1,32,47Z" style="fill:#c1b2ab"/><path d="M32,47a1,1,0,0,1-.833-.445l-12-18a1,1,0,1,1,1.664-1.11l12,18A1,1,0,0,1,32,47Z" style="fill:#c1b2ab"/><path d="M32,47a1,1,0,0,1-.831-1.555l12-18a1,1,0,1,1,1.664,1.11l-12,18A1,1,0,0,1,32,47Z" style="fill:#c1b2ab"/><ellipse cx="44" cy="17" rx="9" ry="11" style="fill:#5fbac5"/><ellipse cx="20" cy="17" rx="9" ry="11" style="fill:#f4b1cc"/><ellipse cx="32" cy="14" rx="9" ry="11" style="fill:#ef4037"/><rect height="12" style="fill:#ef4037" width="16" x="24" y="49"/><polygon points="32 46 27 45 27 49 32 49 37 49 37 45 32 46" style="fill:#ddb66a"/><rect height="12" style="fill:#ddb66a" width="2" x="31" y="49"/><rect height="2" style="fill:#ddb66a" width="16" x="24" y="54"/><path d="M27,14a1,1,0,0,1-1-1c0-3.4,3.251-7,5-7a1,1,0,0,1,.056,2A6.789,6.789,0,0,0,28,13,1,1,0,0,1,27,14Z" style="fill:#fef2dc"/><path d="M45,25a1,1,0,0,1-.056-2A6.789,6.789,0,0,0,48,18a1,1,0,0,1,2,0C50,21.4,46.749,25,45,25Z" style="fill:#e0f9ff"/><path d="M19,25c-1.749,0-5-3.6-5-7a1,1,0,0,1,2,0,6.754,6.754,0,0,0,3.075,5.007.966.966,0,0,1,.963,1A1.03,1.03,0,0,1,19,25Z" style="fill:#ffe0d4"/></svg>