<?xml version="1.0" encoding="iso-8859-1"?>
<!-- Uploaded to: SVG Repo, www.svgrepo.com, Generator: SVG Repo Mixer Tools -->
<svg height="800px" width="800px" version="1.1" id="Layer_1" xmlns="http://www.w3.org/2000/svg" xmlns:xlink="http://www.w3.org/1999/xlink" 
	 viewBox="0 0 512 512" xml:space="preserve">
<polygon style="fill:#EE8700;" points="268.86,512 237.926,512 243.156,423.914 264.676,423.914 "/>
<polygon style="fill:#AA6100;" points="264.708,424.301 243.186,424.301 241.514,452.47 266.046,452.47 "/>
<path style="fill:#FFDA44;" d="M411.49,275.505c-11.474-11.474-22.276-9.031-34.042,0.07c24.037-29.245,35.564-59.586,21.768-73.381
	c-10.965-10.965-21.262-8.123-32.577,1.04c18.06-23.847,25.98-47.577,14.757-58.8c-14.834-14.834-16.966-13.661-34.289,5.226
	c18.761-20.456,20.699-35.124,9.882-45.94c-17.376-17.376-32.376,14.383-58.499,35.522c2.873-2.404,3.514-2.777,6.28-5.447
	c22.037-22.673,42.309-53.938,31.154-65.093c-8.875-8.875-16.966-1.55-27.145,9.256C302.955,34.175,255.999,0,255.999,0
	s-46.278,33.688-52.642,77.018c-9.884-10.647-17.934-17.581-27.198-8.316c-11.342,11.342,7.174,41.871,30.449,63.666
	c3.109,2.927,4.11,3.831,6.428,5.857c-25.247-21.466-39.727-52.697-57.92-34.506c-8.863,8.863-3.268,26.979,10.21,45.465
	c-12.011-11.485-22.657-16.683-34.59-4.75c-10.734,10.734-4.392,32.397,11.454,54.757c-9.77-6.436-19.105-7.146-29.255,3.004
	c-13.302,13.302-3.64,41.301,17.936,69.066c-10.043-6.046-19.72-6.231-30.196,4.246c-33.91,33.91,69.579,155.789,155.408,155.789
	C341.911,431.294,444.843,308.859,411.49,275.505z"/>
<g>
	<path style="fill:#EE8700;" d="M255.26,396.838c-4.333,0-7.845-3.511-7.845-7.845V65.61c0-4.333,3.511-7.845,7.845-7.845
		s7.845,3.511,7.845,7.845v323.384C263.104,393.326,259.592,396.838,255.26,396.838z"/>
	<path style="fill:#EE8700;" d="M256.066,217.057c-31.842,0-54.419-18.736-70.531-35.06c-3.044-3.083-3.011-8.05,0.072-11.093
		c3.081-3.043,8.049-3.011,11.093,0.072c14.834,15.028,33.486,30.392,59.364,30.392c26.189,0,45.747-15.936,59.86-29.82
		c3.088-3.036,8.055-2.999,11.093,0.091c3.037,3.089,2.998,8.055-0.091,11.093C310.684,198.713,287.949,217.057,256.066,217.057z"/>
	<path style="fill:#EE8700;" d="M256.076,284.023c-34.521,0-59.213-19.863-74.784-34.803c-3.126-3-3.229-7.966-0.23-11.091
		c3-3.126,7.966-3.227,11.091-0.23c21.937,21.049,41.651,30.436,63.922,30.436c30.376,0,52.386-17.759,69.91-35.131
		c3.078-3.051,8.045-3.029,11.093,0.048c3.05,3.076,3.029,8.043-0.048,11.093C318.396,262.818,292.353,284.023,256.076,284.023z"/>
	<path style="fill:#EE8700;" d="M256.083,363.674c-39.507,0-67.198-23.227-89.076-45.95c-3.005-3.12-2.911-8.086,0.209-11.091
		c3.121-3.005,8.087-2.91,11.091,0.209c19.59,20.345,44.15,41.142,77.775,41.142c37.028,0,63.126-24.181,84.682-46.847
		c2.985-3.139,7.95-3.264,11.091-0.278c3.139,2.985,3.263,7.951,0.278,11.091C326.584,338.815,297.265,363.674,256.083,363.674z"/>
</g>
<path style="opacity:0.28;fill:#AA6100;enable-background:new    ;" d="M411.49,275.504c-11.474-11.474-22.275-9.031-34.042,0.07
	c24.037-29.245,35.564-59.586,21.768-73.381c-10.965-10.965-21.262-8.123-32.577,1.04c18.06-23.847,25.98-47.577,14.757-58.8
	c-14.834-14.834-16.966-13.661-34.289,5.226c18.762-20.456,20.699-35.124,9.882-45.941c-15.93-15.93-29.865,9.437-52.203,30.059
	c22.031-22.672,42.29-53.923,31.138-65.076c-8.875-8.875-16.966-1.55-27.145,9.256c-1.715-12.891-6.998-24.949-13.597-35.548
	c2.768,28.633,4.53,61.36,3.889,96.351c0.37-0.306,0.711-0.588,1.016-0.837c-0.337,0.282-0.676,0.563-1.016,0.842
	c-1.67,91.001-19.606,197.263-78.369,286.355c11.861,3.934,23.782,6.175,35.38,6.175
	C341.911,431.294,444.843,308.859,411.49,275.504z"/>
</svg>