<?xml version="1.0" encoding="iso-8859-1"?>
<!-- Uploaded to: SVG Repo, www.svgrepo.com, Generator: SVG Repo Mixer Tools -->
<svg height="800px" width="800px" version="1.1" id="Layer_1" xmlns="http://www.w3.org/2000/svg" xmlns:xlink="http://www.w3.org/1999/xlink" 
	 viewBox="0 0 511.999 511.999" xml:space="preserve">
<path style="fill:#263B74;" d="M345.802,175.291h-89.801H84.625V90.474c0-23.601,16.604-43.943,39.726-48.672l131.65-26.922
	l71.207-14.56c9.604-1.964,18.594,5.374,18.594,15.177V175.291z"/>
<path style="fill:#0D9EC0;" d="M407.448,511.999H104.551c-11.005,0-19.927-8.922-19.927-19.927V89.538
	c0-11.005,8.922-19.927,19.927-19.927h302.896c11.005,0,19.927,8.922,19.927,19.927v402.534
	C427.375,503.077,418.454,511.999,407.448,511.999z"/>
<path style="fill:#51D2E1;" d="M256,511.999H104.551c-11.005,0-19.927-8.922-19.927-19.927V89.538
	c0-11.005,8.922-19.927,19.927-19.927H256V511.999z"/>
<path style="fill:#F66131;" d="M360.951,161.676c0-11.005-8.922-19.927-19.927-19.927H170.976c-11.005,0-19.927,8.922-19.927,19.927
	V307.81c0,11.005,8.922,19.927,19.927,19.927h170.047c11.005,0,19.927-8.922,19.927-19.927V161.676z"/>
<path style="fill:#F68B4D;" d="M256,141.748h-85.024c-11.005,0-19.927,8.522-19.927,19.528V307.41
	c0,11.005,8.922,20.327,19.927,20.327H256V141.748z"/>
<path style="fill:#E6E6E6;" d="M340.359,439.596H171.64c-11.005,0-19.927-8.922-19.927-19.927c0-11.005,8.922-19.927,19.927-19.927
	h168.719c11.005,0,19.927,8.922,19.927,19.927C360.286,430.674,351.366,439.596,340.359,439.596z"/>
<path style="fill:#F5F5F5;" d="M256,439.596H171.64c-11.005,0-19.927-8.922-19.927-19.927c0-11.005,8.922-19.927,19.927-19.927H256
	V439.596z"/>
</svg>