<?xml version="1.0" encoding="iso-8859-1"?>
<!-- Uploaded to: SVG Repo, www.svgrepo.com, Generator: SVG Repo Mixer Tools -->
<svg version="1.1" id="Layer_1" xmlns="http://www.w3.org/2000/svg" xmlns:xlink="http://www.w3.org/1999/xlink" 
	 viewBox="0 0 512.007 512.007" xml:space="preserve">
<rect x="222.574" y="327.585" transform="matrix(0.7071 0.7071 -0.7071 0.7071 373.2162 -154.5926)" style="fill:#D7D7D7;" width="301.287" height="91.261"/>
<rect x="206.438" y="366.539" transform="matrix(0.7071 0.7071 -0.7071 0.7071 379.9014 -138.456)" style="fill:#B0B0B0;" width="301.287" height="45.63"/>
<rect x="385.1" y="346.82" transform="matrix(0.7071 0.7071 -0.7071 0.7071 378.0006 -177.0035)" style="fill:#8B8B8B;" width="35.124" height="41.931"/>
<g>
	
		<rect x="296.763" y="328.243" transform="matrix(0.7071 0.7071 -0.7071 0.7071 338.992 -119.9802)" style="fill:#6F6F6F;" width="35.124" height="41.932"/>
	
		<rect x="403.693" y="435.16" transform="matrix(0.7071 0.7071 -0.7071 0.7071 445.9125 -164.2761)" style="fill:#6F6F6F;" width="35.124" height="41.932"/>
</g>
<path style="fill:#444444;" d="M145.391,10.274L10.276,145.388c-13.697,13.697-13.697,35.906,0,49.603l163.442,163.442
	c13.697,13.697,35.906,13.697,49.603,0l135.115-135.116c13.697-13.697,13.697-35.905,0-49.603L194.993,10.274
	C181.296-3.425,159.088-3.425,145.391,10.274z M114.979,203.711l-24.836-24.838l88.733-88.733l24.838,24.836L114.979,203.711z"/>
<path style="fill:#282828;" d="M114.979,203.711l-24.836-24.838l44.366-44.366L77.833,77.831l-67.557,67.557
	c-13.697,13.697-13.697,35.906,0,49.603l163.442,163.442c13.697,13.697,35.906,13.697,49.603,0l67.557-67.557L159.347,159.344
	L114.979,203.711z"/>
</svg>